<svg width="65" height="77" viewBox="0 0 65 77" fill="none" xmlns="http://www.w3.org/2000/svg">
<g id="Vector">
<path d="M5.21956 8.05396L3.88772 6.6708C4.27332 6.29566 7.7158 2.99599 10.1359 2.74335L10.3338 4.65986C9.00198 4.80022 6.49051 6.81626 5.21956 8.05396Z" fill="#EA3041"/>
<path d="M39.4135 8.05396C38.1426 6.81626 35.6311 4.80022 34.3018 4.65986L34.4997 2.74335C36.9198 2.99599 40.3623 6.29566 40.7479 6.6708L39.4135 8.05396Z" fill="#EA3041"/>
<path d="M22.2747 46.7288C20.4253 46.7288 18.9235 45.2206 18.9235 43.3576V40.2902H25.6258V43.3576C25.6258 45.2206 24.1266 46.7288 22.2747 46.7288Z" fill="white"/>
<path d="M31.7979 76.9847C25.6131 76.9847 20.5851 70.9008 20.5851 63.4262V38.782H23.9439V63.4262C23.9439 69.0405 27.4676 73.6059 31.8005 73.6059C36.1334 73.6059 39.657 69.0405 39.657 63.4262V55.2319H43.0158V63.4262C43.0133 70.9008 37.9827 76.9847 31.7979 76.9847Z" fill="white"/>
<path d="M50.5756 37.09C51.6233 37.09 52.6431 37.2661 53.602 37.5953C53.328 38.0113 53.0921 38.4094 52.8892 38.7896C52.5822 39.374 52.4325 39.8793 52.4325 40.331C52.4325 40.4816 52.4401 40.6219 52.4579 40.7649C51.8516 40.5786 51.225 40.4739 50.5756 40.4739C46.405 40.4739 43.0158 44.8735 43.0158 50.2836V56.4721H39.6545V50.2836C39.6545 43.0131 44.5557 37.09 50.5756 37.09Z" fill="white"/>
<path d="M55.8649 43.1024V43.1305C55.8573 43.1203 55.8395 43.1024 55.8294 43.0948C55.837 43.1024 55.8547 43.1024 55.8649 43.1024Z" fill="white"/>
<path d="M61.7833 56.3879V72.774H61.5448C61.281 72.2483 60.733 71.8884 60.1115 71.8884C59.49 71.8884 58.942 72.2483 58.6782 72.774H58.4397V57.9522C58.9496 57.8195 59.4469 57.6435 59.9314 57.4265C60.5884 57.1407 61.2176 56.7988 61.7833 56.3879Z" fill="white"/>
<path d="M61.7833 70.444C61.2912 70.1659 60.7204 70.0077 60.109 70.0077C59.4976 70.0077 58.9268 70.1659 58.4347 70.444C57.3591 71.0386 56.6361 72.1896 56.6361 73.5064C56.6361 75.4305 58.1911 77 60.109 77C62.0268 77 63.5819 75.4305 63.5819 73.5064C63.5819 72.1896 62.8589 71.0386 61.7833 70.444ZM60.109 75.1218C59.2211 75.1218 58.4981 74.3996 58.4981 73.5089C58.4981 73.2435 58.5615 72.996 58.6757 72.774C58.9395 72.2483 59.4875 71.8884 60.109 71.8884C60.7305 71.8884 61.2785 72.2483 61.5423 72.774C61.6565 72.996 61.7199 73.241 61.7199 73.5089C61.7199 74.3996 60.9969 75.1218 60.109 75.1218Z" fill="#EA3041"/>
<path d="M21.1179 42.3164C21.0215 42.2246 11.3308 32.9584 3.80147 24.6467C-3.00739 17.1338 0.82323 8.93693 3.80147 5.65257L6.28503 7.92381C6.01866 8.21983 -0.148377 15.2785 6.28249 22.3729C13.7306 30.5902 23.3351 39.7747 23.4315 39.8666L21.1179 42.3164Z" fill="white"/>
<path d="M23.4213 42.3164L21.1103 39.8666C21.2067 39.7747 30.8111 30.5902 38.2567 22.3729C44.685 15.2785 38.518 8.22239 38.2542 7.92381L40.7377 5.65257C43.716 8.93693 47.5466 17.1338 40.7377 24.6467C33.2059 32.9584 23.5177 42.2246 23.4213 42.3164Z" fill="white"/>
<path d="M14.3826 2.66169C14.3826 4.13161 13.1979 5.32337 11.7367 5.32337C10.2755 5.32337 9.09077 4.13161 9.09077 2.66169C9.09077 1.19177 10.2755 4.08205e-06 11.7367 4.08205e-06C13.1979 -0.00254787 14.3826 1.19177 14.3826 2.66169Z" fill="white"/>
<path d="M35.4358 2.66169C35.4358 4.13161 34.2511 5.32337 32.7898 5.32337C31.3286 5.32337 30.1439 4.13161 30.1439 2.66169C30.1439 1.19177 31.3286 4.08205e-06 32.7898 4.08205e-06C34.2511 -0.00254787 35.4358 1.19177 35.4358 2.66169Z" fill="white"/>
<path d="M58.4347 52.2384V52.5396H57.8182C57.8436 52.5319 57.8614 52.5217 57.8893 52.514C58.0744 52.4324 58.2571 52.3354 58.4347 52.2384Z" fill="white"/>
<path d="M57.8893 52.514C57.8639 52.5217 57.8461 52.5345 57.8208 52.5396H58.4372V52.2359C58.2596 52.3354 58.0719 52.4324 57.8893 52.514Z" fill="#EA3041"/>
<path d="M65 47.6602C65 48.9183 64.7615 50.1203 64.2795 51.2278C63.795 52.3431 63.1278 53.3358 62.2983 54.1677C62.1308 54.3361 61.9634 54.4943 61.7884 54.6373C61.0755 55.2574 60.2663 55.7703 59.3784 56.1608C59.0714 56.2935 58.7543 56.4083 58.4372 56.5053C56.527 57.0795 54.3808 57.0004 52.5315 56.2297C51.4761 55.7958 50.5248 55.1859 49.7156 54.4152C48.8962 53.6446 48.2112 52.7233 47.6912 51.6719C47.2777 50.8476 46.9885 49.9544 46.8211 49.0077H50.8419C50.9662 49.4415 51.1413 49.8498 51.3696 50.2377C51.6867 50.7787 52.0825 51.2559 52.5391 51.654C52.9957 52.0521 53.5158 52.3609 54.0789 52.5829C55.2941 53.0704 56.6564 53.0244 57.8182 52.5396H58.4347V52.2384C58.8482 51.9985 59.2186 51.7153 59.5534 51.3784C60.01 50.9089 60.3804 50.3525 60.6544 49.7222C60.9284 49.0842 61.0679 48.385 61.0679 47.6602C61.0679 46.7849 60.9182 46.0397 60.629 45.4477C60.3474 44.8633 59.9695 44.3682 59.5103 43.988C59.0714 43.6256 58.5767 43.3321 58.0313 43.1126C57.5392 42.9187 57.0445 42.7503 56.5802 42.6176C56.3418 42.5385 56.1059 42.467 55.8674 42.37C55.7177 42.3267 55.5681 42.2731 55.4184 42.2195C55.0835 42.097 54.7943 41.9362 54.5381 41.7601C54.3098 41.5917 54.1322 41.3977 53.9927 41.1681C53.8684 40.9639 53.8075 40.6908 53.8075 40.3361C53.8075 40.1856 53.8608 39.91 54.1068 39.4429C54.3174 39.0346 54.5914 38.6008 54.8983 38.1517C54.9339 38.0981 54.977 38.0445 55.0125 37.9909C55.3829 37.4677 55.7964 36.9369 56.2276 36.4061C56.6589 35.8651 57.0724 35.3624 57.4504 34.9183L57.9527 34.3518C58.0237 34.2727 58.0846 34.2012 58.1379 34.1298C58.1734 34.0762 58.2267 34.0149 58.2875 33.9358L59.2287 32.8028H49.5659L48.5816 28.8013H61.0349C61.5372 28.8013 62.037 28.8626 62.5215 28.9876C62.9781 29.1024 63.3916 29.2887 63.7443 29.5286C64.069 29.7583 64.3328 30.0518 64.5358 30.4218C64.7286 30.7842 64.8351 31.2461 64.8351 31.7948C64.8351 32.1393 64.7286 32.5374 64.518 32.9814C64.2795 33.4867 63.9802 34.0073 63.62 34.5304C63.2496 35.0715 62.8462 35.6099 62.415 36.1229C61.966 36.6537 61.5524 37.1411 61.1389 37.6004L60.7001 38.1134C60.5859 38.2537 60.4439 38.4324 60.2764 38.6442L59.7919 39.2643L60.4616 39.6726C61.1567 40.0886 61.7985 40.5939 62.3541 41.1604C62.9097 41.7346 63.3916 42.3726 63.7874 43.0642C64.1755 43.7455 64.4825 44.4882 64.693 45.2588C64.8934 46.0321 65 46.8385 65 47.6602Z" fill="#EA3041"/>
<path d="M55.8319 43.0897C55.837 43.1024 55.8573 43.1203 55.8623 43.128V43.1024C55.8573 43.1024 55.8395 43.1024 55.8319 43.0897Z" fill="white"/>
</g>
</svg>
